<svg xmlns="http://www.w3.org/2000/svg" viewBox="16183.812 -4194.85 3274.653 1026.069">
  <defs>
    <style>
      .cls-1 {
        fill: #95989a;
        fill-rule: evenodd;
      }
    </style>
  </defs>
  <path id="Path_133" data-name="Path 133" class="cls-1" d="M1725.536,257.24c0,37.574-28.9,66.478-66.478,66.478s-66.478-28.9-66.478-66.478,28.9-66.478,66.478-66.478,66.478,31.794,66.478,66.478ZM1450.954,390.2v17.342s-31.794-40.465-98.272-40.465c-112.723,0-199.434,83.82-199.434,202.323,0,115.613,86.71,202.323,199.434,202.323,69.368,0,98.272-43.355,98.272-43.355v17.342c0,8.671,5.781,14.452,14.452,14.452h83.82V375.743h-83.82c-8.671,0-14.452,8.671-14.452,14.452Zm0,248.569c-14.452,23.123-46.245,43.355-83.82,43.355-66.478,0-115.614-40.465-115.614-109.833s49.136-109.833,115.614-109.833c34.684,0,69.368,20.232,83.82,43.355V638.764Zm158.968-263.02h98.271V760.158h-98.271V375.743Zm1465.4-8.671c-66.478,0-98.271,40.465-98.271,40.465V190.762H2878.78v569.4h83.82c8.671,0,14.452-5.781,14.452-14.452V728.364h0s31.794,43.355,98.271,43.355c112.724,0,199.434-86.71,199.434-202.323s-86.71-202.323-199.434-202.323Zm-14.451,312.156c-37.574,0-66.477-20.232-83.82-43.355V500.028c14.452-20.232,49.135-43.355,83.82-43.355,66.478,0,115.614,40.465,115.614,109.833,0,72.258-52.026,112.723-115.614,112.723ZM2826.754,534.712V763.048h-98.271V546.273c0-63.587-20.232-89.6-75.149-89.6-28.9,0-60.7,14.452-80.929,37.574v268.8h-98.271v-387.3h78.039c8.671,0,14.452,5.781,14.452,14.452v17.342c28.9-28.9,66.478-40.465,104.052-40.465,43.355,0,78.039,11.561,106.942,37.574,37.575,26.013,49.136,63.587,49.136,130.065ZM2237.126,367.072c-66.478,0-98.271,40.465-98.271,40.465V190.762h-98.271v569.4h83.82c8.671,0,14.452-5.781,14.452-14.452V728.364h0s31.793,43.355,98.271,43.355c112.723,0,199.433-86.71,199.433-202.323s-86.71-202.323-199.433-202.323Zm-17.342,312.156c-37.575,0-66.478-20.232-83.82-43.355V500.028c14.452-20.232,49.136-43.355,83.82-43.355,66.478,0,115.613,40.465,115.613,109.833,0,72.258-49.135,112.723-115.613,112.723ZM1953.872,367.072c28.9,0,46.245,5.781,46.245,5.781v89.6s-80.929-28.9-132.955,31.794v268.8h-98.271v-387.3h83.82c8.671,0,14.451,5.781,14.451,14.452v17.342c17.342-20.232,57.807-40.465,86.71-40.465ZM933.583,725.474c-5.781-11.561-11.561-26.013-14.452-37.574-8.671-17.342-17.342-34.684-23.123-52.026h0C826.641,482.686,748.6,326.608,670.563,173.42l-2.89-5.781C659,153.188,650.331,135.846,641.659,118.5c-11.561-17.342-20.232-37.574-37.574-54.916C569.4,23.123,523.156,0,474.02,0c-52.026,0-98.271,23.123-130.065,60.7C329.5,78.039,317.942,98.271,306.38,115.613c-8.671,17.342-17.342,31.794-26.013,49.136l-2.89,8.671C199.438,326.608,121.4,479.8,52.03,635.874v2.89c-5.781,17.342-14.452,34.684-23.123,52.026-5.781,11.561-11.561,23.123-14.452,37.574C0,765.939-2.886,803.513,2.895,838.2a219.808,219.808,0,0,0,132.956,170.53,207.329,207.329,0,0,0,83.82,17.342c8.671,0,17.342,0,26.013-2.89,34.684-2.89,69.368-14.452,101.162-34.684,43.355-23.123,80.929-57.807,127.175-106.942,46.245,49.136,86.71,83.82,127.175,106.942,34.684,20.232,69.368,31.794,101.162,34.684,8.671,0,17.342,2.89,26.013,2.89a207.33,207.33,0,0,0,83.82-17.342c72.258-28.9,121.394-95.381,132.956-170.53,5.781-37.574,2.891-72.258-11.561-112.723ZM471.129,780.39c-54.916-69.368-92.491-135.846-104.052-190.762-5.781-23.123-5.781-43.355-2.89-63.588q4.336-26.013,17.342-43.355c20.232-28.9,52.026-46.245,89.6-46.245s72.258,17.342,89.6,46.245q13.007,17.342,17.342,43.355a161.533,161.533,0,0,1-2.89,63.588Q557.84,672,471.129,780.39Zm410.428,49.136c-5.781,52.026-43.355,98.271-92.491,118.5-26.013,11.561-52.026,14.452-78.039,11.561S659,948.03,632.988,933.578c-37.574-20.232-75.149-52.026-115.613-98.271,66.478-83.82,109.833-158.968,124.284-225.446,5.781-31.794,8.671-60.7,5.781-86.71s-14.452-49.136-28.9-69.368c-31.794-46.245-83.82-72.258-144.517-72.258S361.3,410.427,329.5,453.782c-14.452,20.232-23.123,43.355-28.9,69.368-2.89,26.013-2.89,54.916,5.781,86.71,14.452,66.478,57.807,144.517,124.285,228.336-43.355,46.245-80.93,78.039-115.614,98.271q-39.02,21.678-78.039,26.013c-28.9,2.89-54.916,0-78.039-11.561-49.136-20.232-86.71-66.478-92.491-118.5-2.89-26.013,0-52.026,8.671-80.929,2.89-11.561,8.671-20.232,14.452-31.794,5.781-17.342,14.452-34.684,23.123-52.026v-2.89C182.1,511.589,257.244,355.511,335.284,202.323l2.89-5.781c8.671-14.452,17.342-31.794,26.013-46.245,8.671-17.342,17.342-31.794,28.9-46.245,20.232-26.013,49.136-37.574,80.929-37.574s60.7,14.452,80.929,37.574c11.561,14.452,20.232,28.9,28.9,46.245,8.671,14.452,17.342,31.794,26.013,46.245l2.89,5.781C690.8,355.511,765.944,511.589,835.312,664.777h0c8.671,17.342,14.452,34.684,23.123,52.026,5.781,11.561,11.561,23.123,14.452,31.794,8.671,26.013,11.561,52.026,8.671,80.929Z" transform="translate(16183.708 -4194.85)"/>
</svg>
