<svg xmlns="http://www.w3.org/2000/svg" viewBox="13002 -90 65.216 65.318">
  <defs>
    <style>
      .cls-1 {
        fill: #95989a;
      }
    </style>
  </defs>
  <g id="Blue_1_" transform="translate(13002.016 -89.982)">
    <path id="Path_140" data-name="Path 140" class="cls-1" d="M19.4,30.1a1.793,1.793,0,0,0-2.6-.3,4.349,4.349,0,0,0-.6.7l-16,32a1.919,1.919,0,0,0,.9,2.6,2.92,2.92,0,0,0,.9.2H24.3A1.848,1.848,0,0,0,26,64.2C30.7,54.2,27.8,39.1,19.4,30.1Z"/>
    <path id="Path_141" data-name="Path 141" class="cls-1" d="M31.1,1a42.336,42.336,0,0,0-2.5,41.6L39.3,64.1A2.031,2.031,0,0,0,41,65.2H63.3a1.9,1.9,0,0,0,1.9-1.9,2.92,2.92,0,0,0-.2-.9S35,2.5,34.3,1A1.714,1.714,0,0,0,31.9.2,3.044,3.044,0,0,0,31.1,1Z"/>
  </g>
</svg>
