<svg xmlns="http://www.w3.org/2000/svg" viewBox="16124 64.24 24.654 28.232">
  <defs>
    <style>
      .cls-1 {
        fill: #fff;
      }
    </style>
  </defs>
  <g id="Group_332" data-name="Group 332" transform="translate(16124 64.165)">
    <path id="Path_139" data-name="Path 139" class="cls-1" d="M12.33,28.307h0a.747.747,0,0,1-.39-.109L.38,21.525A.751.751,0,0,1,0,20.868V7.511a.751.751,0,0,1,.38-.657L11.944.175a.773.773,0,0,1,.761,0L24.274,6.854a.758.758,0,0,1,0,1.314L13.086,14.624v4.925l10.423-6.022a.773.773,0,0,1,.761,0,.751.751,0,0,1,.38.657v6.684a.751.751,0,0,1-.38.657L12.72,28.2a.747.747,0,0,1-.39.109ZM1.521,20.428l10.053,5.8V21.308L1.521,15.5Zm11.569.879v4.925l10.043-5.8V15.5ZM1.521,13.75l10.048,5.8V14.629L1.521,8.825Zm.756-6.239,10.048,5.8,10.048-5.8-10.048-5.8Z" transform="translate(0 0)"/>
  </g>
</svg>
