<svg xmlns="http://www.w3.org/2000/svg" viewBox="13908.482 -4194.85 1026.063 1026.068">
  <defs>
    <style>
      .cls-1 {
        fill: #95989a;
      }
    </style>
  </defs>
  <path id="facebook_1_" data-name="facebook (1)" class="cls-1" d="M887.8,0H138.267A138.265,138.265,0,0,0,0,138.265V887.8a138.264,138.264,0,0,0,138.265,138.265H507.931l.63-366.66H413.3a22.475,22.475,0,0,1-22.475-22.389l-.457-118.19a22.477,22.477,0,0,1,22.477-22.563h95.085v-114.2c0-132.529,80.941-204.693,199.166-204.693h97.013a22.478,22.478,0,0,1,22.477,22.477V299.5a22.479,22.479,0,0,1-22.465,22.477l-59.535.028c-64.294,0-76.744,30.552-76.744,75.389v98.867H809.122a22.476,22.476,0,0,1,22.319,25.123l-14.009,118.19a22.478,22.478,0,0,1-22.319,19.832H668.475l-.63,366.66H887.8a138.262,138.262,0,0,0,138.262-138.262V138.265A138.267,138.267,0,0,0,887.8,0Z" transform="translate(13908.48 -4194.85)"/>
</svg>
