<svg xmlns="http://www.w3.org/2000/svg" viewBox="11501.152 -4193.665 1024.887 1024.886">
  <defs>
    <style>
      .cls-1 {
        fill: #95989a;
      }
    </style>
  </defs>
  <g id="search" transform="translate(11501.152 -4193.665)">
    <path id="Path_123" data-name="Path 123" class="cls-1" d="M227.137,480.844,191.462,614.023,61.071,616.782A513.338,513.338,0,0,1,57.3,138.268h.028L173.41,159.55l50.852,115.388a305.827,305.827,0,0,0,2.875,205.906Z" transform="translate(0 138.507)"/>
    <path id="Path_124" data-name="Path 124" class="cls-1" d="M753.853,208.176A512.247,512.247,0,0,1,571.176,703.528l-.028-.028-146.214-7.46L404.24,566.858A305.413,305.413,0,0,0,535.646,410.9H261.628V208.176H753.853Z" transform="translate(262.081 208.536)"/>
    <path id="Path_125" data-name="Path 125" class="cls-1" d="M802.665,602.092l.028.028A510.283,510.283,0,0,1,481.882,714.942c-195.151,0-364.82-109.077-451.373-269.6L196.575,309.409c43.275,115.5,154.69,197.712,285.307,197.712A302.986,302.986,0,0,0,635.755,465.45Z" transform="translate(30.562 309.944)"/>
    <path id="Path_126" data-name="Path 126" class="cls-1" d="M810.861,117.974,644.851,253.883A302.9,302.9,0,0,0,483.77,207.82C350.2,207.82,236.7,293.808,195.59,413.445L28.652,276.775h-.028C113.91,112.343,285.718,0,483.77,0A510.291,510.291,0,0,1,810.861,117.974Z" transform="translate(28.674)"/>
  </g>
</svg>
