<svg xmlns="http://www.w3.org/2000/svg" viewBox="19963.438 -4194.85 1028.92 1026.069">
  <defs>
    <style>
      .cls-1 {
        fill: #95989a;
      }

      .cls-2 {
        fill: #efefef;
      }
    </style>
  </defs>
  <g id="Group_296" data-name="Group 296" transform="translate(19963.438 -4194.85)">
    <g id="Group_191" data-name="Group 191" transform="translate(0)">
      <path id="Path_120" data-name="Path 120" class="cls-1" d="M949.115,0H76.955C34.2,0,0,34.2,0,74.1V951.964c0,39.9,34.2,74.105,76.955,74.105h875.01c42.753,0,76.955-34.2,76.955-74.105V74.1C1026.07,34.2,991.868,0,949.115,0Z" transform="translate(0)"/>
      <path id="Path_121" data-name="Path 121" class="cls-2" d="M16.3,247.266h151.06V737.5H16.3ZM93.256,5c48.453,0,88.356,39.9,88.356,88.356s-39.9,88.356-88.356,88.356S4.9,141.809,4.9,93.356C4.9,42.053,44.8,5,93.256,5" transform="translate(134.76 137.51)"/>
      <path id="Path_122" data-name="Path 122" class="cls-2" d="M14,27.251H159.36V92.805h2.85C182.162,52.9,233.465,13,307.57,13c153.911,0,182.412,102.607,182.412,233.716V514.634H338.922V275.218c0-57,0-131.109-79.805-131.109s-91.206,62.7-91.206,125.408V511.784H14Z" transform="translate(385.027 357.525)"/>
    </g>
  </g>
</svg>
