<svg xmlns="http://www.w3.org/2000/svg" viewBox="21385 6662.603 41.348 28.399">
  <defs>
    <style>
      .cls-1 {
        fill: #fff;
        opacity: 0.5;
      }
    </style>
  </defs>
  <g id="quotes" transform="translate(21385 6582.353)">
    <path id="Path_150" data-name="Path 150" class="cls-1" d="M9.076,90.577A9.036,9.036,0,1,1,.04,99.613L0,98.322A18.072,18.072,0,0,1,18.072,80.25v5.163a12.824,12.824,0,0,0-9.128,3.781A13.1,13.1,0,0,0,7.66,90.688,9.1,9.1,0,0,1,9.076,90.577Zm23.235,0a9.036,9.036,0,1,1-9.036,9.036l-.04-1.291A18.072,18.072,0,0,1,41.307,80.25v5.163a12.824,12.824,0,0,0-9.128,3.781A13.088,13.088,0,0,0,30.9,90.688,9.1,9.1,0,0,1,32.312,90.577Z"/>
  </g>
</svg>
