<svg xmlns="http://www.w3.org/2000/svg" viewBox="21888.684 -4194.853 1233.535 1026.071">
  <defs>
    <style>
      .cls-1 {
        fill: #95989a;
      }
    </style>
  </defs>
  <path id="twitter_1_" data-name="twitter (1)" class="cls-1" d="M1213.916,153.855a488.459,488.459,0,0,1-85.052,28.682,265.188,265.188,0,0,0,70-111.478h0c3.895-12.183-9.338-22.719-20.34-16.2h0a490.782,490.782,0,0,1-130.029,53.72,33.139,33.139,0,0,1-8.126,1.011A34.467,34.467,0,0,1,1017.6,100.9,265.934,265.934,0,0,0,841.641,34.491,284.335,284.335,0,0,0,757.389,47.5c-86.23,26.746-152.765,97.875-173.64,185.634a283.7,283.7,0,0,0-6.307,97.923,9.522,9.522,0,0,1-2.4,7.461,9.859,9.859,0,0,1-7.335,3.326c-.31,0-.629-.015-.944-.045C378.01,324.262,207.8,233.325,87.484,85.741h0a13.905,13.905,0,0,0-22.791,1.783h0a266.244,266.244,0,0,0,43.266,323.262A238.321,238.321,0,0,1,47.3,387.3h0a13.9,13.9,0,0,0-20.655,11.985h0A266.272,266.272,0,0,0,181.97,644.606q-2.838.068-5.678.066a239.312,239.312,0,0,1-44.805-4.273h0a13.906,13.906,0,0,0-15.852,17.9h0a266.534,266.534,0,0,0,210.53,181.285A490.735,490.735,0,0,1,51.31,923.051l-30.758-.018A20.365,20.365,0,0,0,.646,938.389c-2.379,9.041,2,18.577,10.084,23.278a729.92,729.92,0,0,0,366.778,98.9c112.736,0,218.19-22.373,313.437-66.493,87.316-40.447,164.476-98.266,229.336-171.85,60.42-68.546,107.668-147.676,140.426-235.188,31.227-83.418,47.732-172.428,47.732-257.407v-4.048a45.252,45.252,0,0,1,16.935-35.224,525.633,525.633,0,0,0,105.743-116.062h0c7.738-11.576-4.466-26.084-17.2-20.436Z" transform="translate(21888.684 -4229.344)"/>
</svg>
